<svg width="111" height="40" viewBox="0 0 111 40" fill="none" xmlns="http://www.w3.org/2000/svg">
<rect width="40" height="40" rx="8" fill="#017EFA"/>
<path d="M20 10C14.486 10 10 14.486 10 20C10 25.514 14.486 30 20 30C25.514 30 30 25.514 30 20C30 14.486 25.514 10 20 10ZM20 28C15.589 28 12 24.411 12 20C12 15.589 15.589 12 20 12C24.411 12 28 15.589 28 20C28 24.411 24.411 28 20 28Z" fill="white"/>
<path d="M21 14L15 21H19V26L25 19H21V14Z" fill="white"/>
<path d="M62.16 12.2H55.44V29H62.16C66.792 29 70.32 25.352 70.32 20.6C70.32 15.848 66.792 12.2 62.16 12.2ZM62.16 25.304H59.28V15.896H62.16C64.8 15.896 66.624 17.72 66.624 20.6C66.624 23.48 64.8 25.304 62.16 25.304ZM81.0711 17V18.128C80.2791 17.216 79.1031 16.664 77.4951 16.664C74.3511 16.664 71.7591 19.424 71.7591 23C71.7591 26.576 74.3511 29.336 77.4951 29.336C79.1031 29.336 80.2791 28.784 81.0711 27.872V29H84.6711V17H81.0711ZM78.2151 25.928C76.5591 25.928 75.3591 24.8 75.3591 23C75.3591 21.2 76.5591 20.072 78.2151 20.072C79.8711 20.072 81.0711 21.2 81.0711 23C81.0711 24.8 79.8711 25.928 78.2151 25.928ZM90.603 20.504C90.603 20.072 90.987 19.832 91.611 19.832C92.403 19.832 92.883 20.264 93.219 20.888L96.291 19.232C95.283 17.528 93.555 16.664 91.611 16.664C89.115 16.664 86.907 17.984 86.907 20.6C86.907 24.752 92.811 24.056 92.811 25.376C92.811 25.856 92.379 26.12 91.515 26.12C90.459 26.12 89.787 25.616 89.475 24.704L86.355 26.48C87.291 28.424 89.115 29.336 91.515 29.336C94.107 29.336 96.507 28.16 96.507 25.4C96.507 20.96 90.603 21.872 90.603 20.504ZM105.336 16.664C103.752 16.664 102.552 17.24 101.904 18.128V12.2H98.3044V29H101.904V22.448C101.904 20.744 102.816 19.976 104.136 19.976C105.288 19.976 106.224 20.672 106.224 22.16V29H109.824V21.632C109.824 18.392 107.76 16.664 105.336 16.664Z" fill="white"/>
</svg>
